<mxfile host="app.diagrams.net" modified="2021-04-20T19:52:32.555Z" agent="5.0 (Macintosh; Intel Mac OS X 11_2_3) AppleWebKit/537.36 (KHTML, like Gecko) Chrome/89.0.4389.128 Safari/537.36" etag="U4Uk7M8Sk7ETwLGwzt27" version="14.4.3" type="github">
  <diagram id="ryVlB7PdQjzx0bgTUUh0" name="Page-1">
    <mxGraphModel dx="1527" dy="826" grid="1" gridSize="10" guides="1" tooltips="1" connect="1" arrows="1" fold="1" page="1" pageScale="1" pageWidth="1654" pageHeight="1169" math="0" shadow="0">
      <root>
        <mxCell id="0" />
        <mxCell id="1" parent="0" />
        <mxCell id="sZjGSIEbr4CvCZts8M8v-53" style="edgeStyle=none;rounded=0;orthogonalLoop=1;jettySize=auto;html=1;entryX=1;entryY=0.5;entryDx=0;entryDy=0;endArrow=none;endFill=0;" edge="1" parent="1" source="sZjGSIEbr4CvCZts8M8v-1" target="sZjGSIEbr4CvCZts8M8v-14">
          <mxGeometry relative="1" as="geometry" />
        </mxCell>
        <mxCell id="sZjGSIEbr4CvCZts8M8v-67" style="edgeStyle=none;rounded=0;orthogonalLoop=1;jettySize=auto;html=1;exitX=0.45;exitY=1.013;exitDx=0;exitDy=0;exitPerimeter=0;dashed=1;" edge="1" parent="1" source="sZjGSIEbr4CvCZts8M8v-14" target="sZjGSIEbr4CvCZts8M8v-66">
          <mxGeometry relative="1" as="geometry" />
        </mxCell>
        <mxCell id="sZjGSIEbr4CvCZts8M8v-77" value="includes" style="edgeLabel;html=1;align=center;verticalAlign=middle;resizable=0;points=[];" vertex="1" connectable="0" parent="sZjGSIEbr4CvCZts8M8v-67">
          <mxGeometry x="0.1659" y="5" relative="1" as="geometry">
            <mxPoint as="offset" />
          </mxGeometry>
        </mxCell>
        <mxCell id="sZjGSIEbr4CvCZts8M8v-104" style="edgeStyle=none;rounded=0;orthogonalLoop=1;jettySize=auto;html=1;endArrow=none;endFill=0;" edge="1" parent="1" source="sZjGSIEbr4CvCZts8M8v-1" target="sZjGSIEbr4CvCZts8M8v-103">
          <mxGeometry relative="1" as="geometry" />
        </mxCell>
        <mxCell id="sZjGSIEbr4CvCZts8M8v-1" value="Attacker" style="shape=umlActor;verticalLabelPosition=bottom;verticalAlign=top;html=1;outlineConnect=0;fillColor=#000000;" vertex="1" parent="1">
          <mxGeometry x="1185" y="380" width="30" height="60" as="geometry" />
        </mxCell>
        <mxCell id="sZjGSIEbr4CvCZts8M8v-20" style="edgeStyle=none;rounded=0;orthogonalLoop=1;jettySize=auto;html=1;endArrow=none;endFill=0;" edge="1" parent="1" source="sZjGSIEbr4CvCZts8M8v-7" target="sZjGSIEbr4CvCZts8M8v-12">
          <mxGeometry relative="1" as="geometry" />
        </mxCell>
        <mxCell id="sZjGSIEbr4CvCZts8M8v-21" value="Registers" style="edgeLabel;html=1;align=center;verticalAlign=middle;resizable=0;points=[];" vertex="1" connectable="0" parent="sZjGSIEbr4CvCZts8M8v-20">
          <mxGeometry x="0.3823" y="-2" relative="1" as="geometry">
            <mxPoint x="4.630000000000003" y="-15.589999999999996" as="offset" />
          </mxGeometry>
        </mxCell>
        <mxCell id="sZjGSIEbr4CvCZts8M8v-22" style="edgeStyle=none;rounded=0;orthogonalLoop=1;jettySize=auto;html=1;entryX=0;entryY=0.5;entryDx=0;entryDy=0;endArrow=none;endFill=0;" edge="1" parent="1" source="sZjGSIEbr4CvCZts8M8v-7" target="sZjGSIEbr4CvCZts8M8v-8">
          <mxGeometry relative="1" as="geometry" />
        </mxCell>
        <mxCell id="sZjGSIEbr4CvCZts8M8v-25" value="Logs in" style="edgeLabel;html=1;align=center;verticalAlign=middle;resizable=0;points=[];" vertex="1" connectable="0" parent="sZjGSIEbr4CvCZts8M8v-22">
          <mxGeometry x="0.1262" y="2" relative="1" as="geometry">
            <mxPoint as="offset" />
          </mxGeometry>
        </mxCell>
        <mxCell id="sZjGSIEbr4CvCZts8M8v-23" style="edgeStyle=none;rounded=0;orthogonalLoop=1;jettySize=auto;html=1;entryX=0;entryY=0.5;entryDx=0;entryDy=0;endArrow=none;endFill=0;" edge="1" parent="1" source="sZjGSIEbr4CvCZts8M8v-7" target="sZjGSIEbr4CvCZts8M8v-9">
          <mxGeometry relative="1" as="geometry" />
        </mxCell>
        <mxCell id="sZjGSIEbr4CvCZts8M8v-26" value="Posts" style="edgeLabel;html=1;align=center;verticalAlign=middle;resizable=0;points=[];" vertex="1" connectable="0" parent="sZjGSIEbr4CvCZts8M8v-23">
          <mxGeometry x="0.0434" y="1" relative="1" as="geometry">
            <mxPoint x="20.1" y="13.48" as="offset" />
          </mxGeometry>
        </mxCell>
        <mxCell id="sZjGSIEbr4CvCZts8M8v-78" style="edgeStyle=none;rounded=0;orthogonalLoop=1;jettySize=auto;html=1;entryX=0.5;entryY=0;entryDx=0;entryDy=0;exitX=0.5;exitY=1;exitDx=0;exitDy=0;dashed=1;" edge="1" parent="1" source="sZjGSIEbr4CvCZts8M8v-9" target="sZjGSIEbr4CvCZts8M8v-64">
          <mxGeometry relative="1" as="geometry" />
        </mxCell>
        <mxCell id="sZjGSIEbr4CvCZts8M8v-79" value="includes" style="edgeLabel;html=1;align=center;verticalAlign=middle;resizable=0;points=[];" vertex="1" connectable="0" parent="sZjGSIEbr4CvCZts8M8v-78">
          <mxGeometry x="0.5734" y="1" relative="1" as="geometry">
            <mxPoint x="-1" y="-18.33" as="offset" />
          </mxGeometry>
        </mxCell>
        <mxCell id="sZjGSIEbr4CvCZts8M8v-98" style="edgeStyle=none;rounded=0;orthogonalLoop=1;jettySize=auto;html=1;entryX=0;entryY=0;entryDx=0;entryDy=0;endArrow=none;endFill=0;" edge="1" parent="1" source="sZjGSIEbr4CvCZts8M8v-7" target="sZjGSIEbr4CvCZts8M8v-9">
          <mxGeometry relative="1" as="geometry" />
        </mxCell>
        <mxCell id="sZjGSIEbr4CvCZts8M8v-99" value="Views" style="edgeLabel;html=1;align=center;verticalAlign=middle;resizable=0;points=[];" vertex="1" connectable="0" parent="sZjGSIEbr4CvCZts8M8v-98">
          <mxGeometry x="0.2834" y="1" relative="1" as="geometry">
            <mxPoint as="offset" />
          </mxGeometry>
        </mxCell>
        <mxCell id="sZjGSIEbr4CvCZts8M8v-7" value="SecFit User" style="shape=umlActor;verticalLabelPosition=bottom;verticalAlign=top;html=1;outlineConnect=0;fillColor=#FBFFF2;" vertex="1" parent="1">
          <mxGeometry x="310" y="489.99999999999994" width="30" height="60" as="geometry" />
        </mxCell>
        <mxCell id="sZjGSIEbr4CvCZts8M8v-39" style="edgeStyle=none;rounded=0;orthogonalLoop=1;jettySize=auto;html=1;entryX=0.04;entryY=0.695;entryDx=0;entryDy=0;entryPerimeter=0;dashed=1;exitX=1;exitY=0.5;exitDx=0;exitDy=0;" edge="1" parent="1" source="sZjGSIEbr4CvCZts8M8v-8" target="sZjGSIEbr4CvCZts8M8v-13">
          <mxGeometry relative="1" as="geometry" />
        </mxCell>
        <mxCell id="sZjGSIEbr4CvCZts8M8v-41" value="includes" style="edgeLabel;html=1;align=center;verticalAlign=middle;resizable=0;points=[];" vertex="1" connectable="0" parent="sZjGSIEbr4CvCZts8M8v-39">
          <mxGeometry x="0.0149" relative="1" as="geometry">
            <mxPoint as="offset" />
          </mxGeometry>
        </mxCell>
        <mxCell id="sZjGSIEbr4CvCZts8M8v-43" style="edgeStyle=none;rounded=0;orthogonalLoop=1;jettySize=auto;html=1;entryX=0;entryY=0.5;entryDx=0;entryDy=0;dashed=1;exitX=0.5;exitY=0;exitDx=0;exitDy=0;" edge="1" parent="1" source="sZjGSIEbr4CvCZts8M8v-8" target="sZjGSIEbr4CvCZts8M8v-42">
          <mxGeometry relative="1" as="geometry" />
        </mxCell>
        <mxCell id="sZjGSIEbr4CvCZts8M8v-50" value="Extends" style="edgeLabel;html=1;align=center;verticalAlign=middle;resizable=0;points=[];" vertex="1" connectable="0" parent="sZjGSIEbr4CvCZts8M8v-43">
          <mxGeometry x="-0.4505" y="2" relative="1" as="geometry">
            <mxPoint x="-8.9" y="6.52" as="offset" />
          </mxGeometry>
        </mxCell>
        <mxCell id="sZjGSIEbr4CvCZts8M8v-70" style="edgeStyle=none;rounded=0;orthogonalLoop=1;jettySize=auto;html=1;dashed=1;entryX=0;entryY=0;entryDx=0;entryDy=0;" edge="1" parent="1" source="sZjGSIEbr4CvCZts8M8v-8" target="sZjGSIEbr4CvCZts8M8v-71">
          <mxGeometry relative="1" as="geometry">
            <mxPoint x="625" y="480" as="targetPoint" />
          </mxGeometry>
        </mxCell>
        <mxCell id="sZjGSIEbr4CvCZts8M8v-73" value="extends" style="edgeLabel;html=1;align=center;verticalAlign=middle;resizable=0;points=[];" vertex="1" connectable="0" parent="sZjGSIEbr4CvCZts8M8v-70">
          <mxGeometry x="0.2839" y="2" relative="1" as="geometry">
            <mxPoint x="-7.43" y="-8.83" as="offset" />
          </mxGeometry>
        </mxCell>
        <mxCell id="sZjGSIEbr4CvCZts8M8v-8" value="Login" style="ellipse;whiteSpace=wrap;html=1;" vertex="1" parent="1">
          <mxGeometry x="455" y="383.33000000000004" width="100" height="66.67" as="geometry" />
        </mxCell>
        <mxCell id="sZjGSIEbr4CvCZts8M8v-56" style="edgeStyle=none;rounded=0;orthogonalLoop=1;jettySize=auto;html=1;entryX=0;entryY=0.5;entryDx=0;entryDy=0;dashed=1;" edge="1" parent="1" source="sZjGSIEbr4CvCZts8M8v-9" target="sZjGSIEbr4CvCZts8M8v-55">
          <mxGeometry relative="1" as="geometry" />
        </mxCell>
        <mxCell id="sZjGSIEbr4CvCZts8M8v-57" value="extends" style="edgeLabel;html=1;align=center;verticalAlign=middle;resizable=0;points=[];" vertex="1" connectable="0" parent="sZjGSIEbr4CvCZts8M8v-56">
          <mxGeometry x="0.1" y="4" relative="1" as="geometry">
            <mxPoint as="offset" />
          </mxGeometry>
        </mxCell>
        <mxCell id="sZjGSIEbr4CvCZts8M8v-101" style="edgeStyle=none;rounded=0;orthogonalLoop=1;jettySize=auto;html=1;endArrow=classic;endFill=1;dashed=1;" edge="1" parent="1" source="sZjGSIEbr4CvCZts8M8v-9" target="sZjGSIEbr4CvCZts8M8v-100">
          <mxGeometry relative="1" as="geometry" />
        </mxCell>
        <mxCell id="sZjGSIEbr4CvCZts8M8v-102" value="Includes" style="edgeLabel;html=1;align=center;verticalAlign=middle;resizable=0;points=[];" vertex="1" connectable="0" parent="sZjGSIEbr4CvCZts8M8v-101">
          <mxGeometry x="-0.1756" y="-1" relative="1" as="geometry">
            <mxPoint as="offset" />
          </mxGeometry>
        </mxCell>
        <mxCell id="sZjGSIEbr4CvCZts8M8v-9" value="Workout" style="ellipse;whiteSpace=wrap;html=1;" vertex="1" parent="1">
          <mxGeometry x="455" y="580" width="100" height="66.67" as="geometry" />
        </mxCell>
        <mxCell id="sZjGSIEbr4CvCZts8M8v-11" value="&lt;font color=&quot;#fbfff2&quot;&gt;Man-in-the-middle&lt;br&gt;attack&lt;br&gt;&lt;/font&gt;" style="ellipse;whiteSpace=wrap;html=1;fillColor=#000000;" vertex="1" parent="1">
          <mxGeometry x="820" y="376.65999999999997" width="120" height="80" as="geometry" />
        </mxCell>
        <mxCell id="sZjGSIEbr4CvCZts8M8v-36" style="edgeStyle=none;rounded=0;orthogonalLoop=1;jettySize=auto;html=1;entryX=0;entryY=1;entryDx=0;entryDy=0;dashed=1;" edge="1" parent="1" source="sZjGSIEbr4CvCZts8M8v-12" target="sZjGSIEbr4CvCZts8M8v-28">
          <mxGeometry relative="1" as="geometry" />
        </mxCell>
        <mxCell id="sZjGSIEbr4CvCZts8M8v-37" value="Includes" style="edgeLabel;html=1;align=center;verticalAlign=middle;resizable=0;points=[];" vertex="1" connectable="0" parent="sZjGSIEbr4CvCZts8M8v-36">
          <mxGeometry x="-0.297" y="-1" relative="1" as="geometry">
            <mxPoint y="-1" as="offset" />
          </mxGeometry>
        </mxCell>
        <mxCell id="sZjGSIEbr4CvCZts8M8v-38" style="edgeStyle=none;rounded=0;orthogonalLoop=1;jettySize=auto;html=1;entryX=0;entryY=0.5;entryDx=0;entryDy=0;dashed=1;" edge="1" parent="1" source="sZjGSIEbr4CvCZts8M8v-12" target="sZjGSIEbr4CvCZts8M8v-13">
          <mxGeometry relative="1" as="geometry" />
        </mxCell>
        <mxCell id="sZjGSIEbr4CvCZts8M8v-40" value="Includes" style="edgeLabel;html=1;align=center;verticalAlign=middle;resizable=0;points=[];" vertex="1" connectable="0" parent="sZjGSIEbr4CvCZts8M8v-38">
          <mxGeometry x="-0.0492" relative="1" as="geometry">
            <mxPoint x="21.38" y="12.75" as="offset" />
          </mxGeometry>
        </mxCell>
        <mxCell id="sZjGSIEbr4CvCZts8M8v-93" style="edgeStyle=none;rounded=0;orthogonalLoop=1;jettySize=auto;html=1;entryX=0;entryY=1;entryDx=0;entryDy=0;dashed=1;" edge="1" parent="1" source="sZjGSIEbr4CvCZts8M8v-12" target="sZjGSIEbr4CvCZts8M8v-84">
          <mxGeometry relative="1" as="geometry" />
        </mxCell>
        <mxCell id="sZjGSIEbr4CvCZts8M8v-94" value="Includes" style="edgeLabel;html=1;align=center;verticalAlign=middle;resizable=0;points=[];" vertex="1" connectable="0" parent="sZjGSIEbr4CvCZts8M8v-93">
          <mxGeometry x="-0.4398" relative="1" as="geometry">
            <mxPoint as="offset" />
          </mxGeometry>
        </mxCell>
        <mxCell id="sZjGSIEbr4CvCZts8M8v-12" value="Register User" style="ellipse;whiteSpace=wrap;html=1;" vertex="1" parent="1">
          <mxGeometry x="455" y="270" width="100" height="66.67" as="geometry" />
        </mxCell>
        <mxCell id="sZjGSIEbr4CvCZts8M8v-15" style="rounded=0;orthogonalLoop=1;jettySize=auto;html=1;entryX=0;entryY=0.5;entryDx=0;entryDy=0;dashed=1;exitX=1;exitY=0.5;exitDx=0;exitDy=0;" edge="1" parent="1" source="sZjGSIEbr4CvCZts8M8v-13" target="sZjGSIEbr4CvCZts8M8v-11">
          <mxGeometry relative="1" as="geometry" />
        </mxCell>
        <mxCell id="sZjGSIEbr4CvCZts8M8v-16" value="mitigates" style="edgeLabel;html=1;align=center;verticalAlign=middle;resizable=0;points=[];" vertex="1" connectable="0" parent="sZjGSIEbr4CvCZts8M8v-15">
          <mxGeometry x="-0.2182" relative="1" as="geometry">
            <mxPoint x="7.259999999999998" y="1.38" as="offset" />
          </mxGeometry>
        </mxCell>
        <mxCell id="sZjGSIEbr4CvCZts8M8v-13" value="Use HTTPS" style="ellipse;whiteSpace=wrap;html=1;dashed=1;" vertex="1" parent="1">
          <mxGeometry x="635" y="370" width="100" height="66.67" as="geometry" />
        </mxCell>
        <mxCell id="sZjGSIEbr4CvCZts8M8v-47" value="includes" style="edgeStyle=none;rounded=0;orthogonalLoop=1;jettySize=auto;html=1;entryX=0.992;entryY=0.638;entryDx=0;entryDy=0;entryPerimeter=0;dashed=1;" edge="1" parent="1" source="sZjGSIEbr4CvCZts8M8v-14" target="sZjGSIEbr4CvCZts8M8v-29">
          <mxGeometry relative="1" as="geometry" />
        </mxCell>
        <mxCell id="sZjGSIEbr4CvCZts8M8v-48" value="includes" style="edgeStyle=none;rounded=0;orthogonalLoop=1;jettySize=auto;html=1;entryX=0.992;entryY=0.413;entryDx=0;entryDy=0;entryPerimeter=0;dashed=1;" edge="1" parent="1" source="sZjGSIEbr4CvCZts8M8v-14" target="sZjGSIEbr4CvCZts8M8v-11">
          <mxGeometry relative="1" as="geometry" />
        </mxCell>
        <mxCell id="sZjGSIEbr4CvCZts8M8v-51" style="edgeStyle=none;rounded=0;orthogonalLoop=1;jettySize=auto;html=1;entryX=1;entryY=0;entryDx=0;entryDy=0;dashed=1;" edge="1" parent="1" source="sZjGSIEbr4CvCZts8M8v-14" target="sZjGSIEbr4CvCZts8M8v-46">
          <mxGeometry relative="1" as="geometry" />
        </mxCell>
        <mxCell id="sZjGSIEbr4CvCZts8M8v-52" value="includes" style="edgeLabel;html=1;align=center;verticalAlign=middle;resizable=0;points=[];" vertex="1" connectable="0" parent="sZjGSIEbr4CvCZts8M8v-51">
          <mxGeometry x="0.3367" y="-1" relative="1" as="geometry">
            <mxPoint as="offset" />
          </mxGeometry>
        </mxCell>
        <mxCell id="sZjGSIEbr4CvCZts8M8v-95" style="edgeStyle=none;rounded=0;orthogonalLoop=1;jettySize=auto;html=1;dashed=1;" edge="1" parent="1" source="sZjGSIEbr4CvCZts8M8v-14">
          <mxGeometry relative="1" as="geometry">
            <mxPoint x="1085" y="320" as="targetPoint" />
          </mxGeometry>
        </mxCell>
        <mxCell id="sZjGSIEbr4CvCZts8M8v-96" value="includes" style="edgeLabel;html=1;align=center;verticalAlign=middle;resizable=0;points=[];" vertex="1" connectable="0" parent="sZjGSIEbr4CvCZts8M8v-95">
          <mxGeometry x="-0.04" y="4" relative="1" as="geometry">
            <mxPoint as="offset" />
          </mxGeometry>
        </mxCell>
        <mxCell id="sZjGSIEbr4CvCZts8M8v-14" value="&lt;font color=&quot;#fbfff2&quot;&gt;Account Theft&lt;br&gt;&lt;/font&gt;" style="ellipse;whiteSpace=wrap;html=1;fillColor=#000000;" vertex="1" parent="1">
          <mxGeometry x="1025" y="370" width="120" height="80" as="geometry" />
        </mxCell>
        <mxCell id="sZjGSIEbr4CvCZts8M8v-82" style="edgeStyle=none;rounded=0;orthogonalLoop=1;jettySize=auto;html=1;entryX=1;entryY=0.36;entryDx=0;entryDy=0;entryPerimeter=0;" edge="1" parent="1" source="sZjGSIEbr4CvCZts8M8v-19" target="sZjGSIEbr4CvCZts8M8v-28">
          <mxGeometry relative="1" as="geometry" />
        </mxCell>
        <mxCell id="sZjGSIEbr4CvCZts8M8v-83" style="edgeStyle=orthogonalEdgeStyle;rounded=0;orthogonalLoop=1;jettySize=auto;html=1;entryX=0.93;entryY=0.24;entryDx=0;entryDy=0;entryPerimeter=0;" edge="1" parent="1" source="sZjGSIEbr4CvCZts8M8v-19" target="sZjGSIEbr4CvCZts8M8v-13">
          <mxGeometry relative="1" as="geometry">
            <Array as="points">
              <mxPoint x="975" y="270" />
              <mxPoint x="748" y="270" />
            </Array>
          </mxGeometry>
        </mxCell>
        <mxCell id="sZjGSIEbr4CvCZts8M8v-88" style="edgeStyle=none;rounded=0;orthogonalLoop=1;jettySize=auto;html=1;entryX=1;entryY=0.5;entryDx=0;entryDy=0;" edge="1" parent="1" source="sZjGSIEbr4CvCZts8M8v-19" target="sZjGSIEbr4CvCZts8M8v-84">
          <mxGeometry relative="1" as="geometry" />
        </mxCell>
        <mxCell id="sZjGSIEbr4CvCZts8M8v-112" style="edgeStyle=orthogonalEdgeStyle;rounded=0;orthogonalLoop=1;jettySize=auto;html=1;endArrow=classic;endFill=1;entryX=1;entryY=0;entryDx=0;entryDy=0;" edge="1" parent="1" source="sZjGSIEbr4CvCZts8M8v-19" target="sZjGSIEbr4CvCZts8M8v-100">
          <mxGeometry relative="1" as="geometry">
            <Array as="points">
              <mxPoint x="975" y="270" />
              <mxPoint x="770" y="270" />
              <mxPoint x="770" y="483" />
            </Array>
          </mxGeometry>
        </mxCell>
        <mxCell id="sZjGSIEbr4CvCZts8M8v-19" value="SecFit Engineer" style="shape=umlActor;verticalLabelPosition=bottom;verticalAlign=top;html=1;outlineConnect=0;fillColor=#FBFFF2;" vertex="1" parent="1">
          <mxGeometry x="960" y="23.34" width="30" height="60" as="geometry" />
        </mxCell>
        <mxCell id="sZjGSIEbr4CvCZts8M8v-34" style="edgeStyle=none;rounded=0;orthogonalLoop=1;jettySize=auto;html=1;entryX=0;entryY=0;entryDx=0;entryDy=0;dashed=1;" edge="1" parent="1" source="sZjGSIEbr4CvCZts8M8v-28" target="sZjGSIEbr4CvCZts8M8v-29">
          <mxGeometry relative="1" as="geometry" />
        </mxCell>
        <mxCell id="sZjGSIEbr4CvCZts8M8v-35" value="mitigates" style="edgeLabel;html=1;align=center;verticalAlign=middle;resizable=0;points=[];" vertex="1" connectable="0" parent="sZjGSIEbr4CvCZts8M8v-34">
          <mxGeometry x="-0.3847" y="-1" relative="1" as="geometry">
            <mxPoint x="11.26" y="-8.32" as="offset" />
          </mxGeometry>
        </mxCell>
        <mxCell id="sZjGSIEbr4CvCZts8M8v-28" value="Enforce strong&lt;br&gt;password policy" style="ellipse;whiteSpace=wrap;html=1;dashed=1;" vertex="1" parent="1">
          <mxGeometry x="635" y="180" width="100" height="66.67" as="geometry" />
        </mxCell>
        <mxCell id="sZjGSIEbr4CvCZts8M8v-62" style="edgeStyle=none;rounded=0;orthogonalLoop=1;jettySize=auto;html=1;entryX=1;entryY=0.5;entryDx=0;entryDy=0;dashed=1;" edge="1" parent="1" source="sZjGSIEbr4CvCZts8M8v-29" target="sZjGSIEbr4CvCZts8M8v-42">
          <mxGeometry relative="1" as="geometry" />
        </mxCell>
        <mxCell id="sZjGSIEbr4CvCZts8M8v-63" value="exploits" style="edgeLabel;html=1;align=center;verticalAlign=middle;resizable=0;points=[];" vertex="1" connectable="0" parent="sZjGSIEbr4CvCZts8M8v-62">
          <mxGeometry x="0.275" y="-1" relative="1" as="geometry">
            <mxPoint x="6" y="1" as="offset" />
          </mxGeometry>
        </mxCell>
        <mxCell id="sZjGSIEbr4CvCZts8M8v-29" value="&lt;font color=&quot;#fbfff2&quot;&gt;Guess account&amp;nbsp;&lt;br&gt;credentials&lt;br&gt;&lt;/font&gt;" style="ellipse;whiteSpace=wrap;html=1;fillColor=#000000;" vertex="1" parent="1">
          <mxGeometry x="805" y="246.67000000000002" width="120" height="80" as="geometry" />
        </mxCell>
        <mxCell id="sZjGSIEbr4CvCZts8M8v-42" value="No throttling on&lt;br&gt;login attempts" style="ellipse;whiteSpace=wrap;html=1;dashed=1;" vertex="1" parent="1">
          <mxGeometry x="635" y="276.66999999999996" width="100" height="66.67" as="geometry" />
        </mxCell>
        <mxCell id="sZjGSIEbr4CvCZts8M8v-59" style="edgeStyle=none;rounded=0;orthogonalLoop=1;jettySize=auto;html=1;dashed=1;" edge="1" parent="1" source="sZjGSIEbr4CvCZts8M8v-46" target="sZjGSIEbr4CvCZts8M8v-54">
          <mxGeometry relative="1" as="geometry" />
        </mxCell>
        <mxCell id="sZjGSIEbr4CvCZts8M8v-60" value="includes" style="edgeLabel;html=1;align=center;verticalAlign=middle;resizable=0;points=[];" vertex="1" connectable="0" parent="sZjGSIEbr4CvCZts8M8v-59">
          <mxGeometry x="-0.1102" y="-3" relative="1" as="geometry">
            <mxPoint as="offset" />
          </mxGeometry>
        </mxCell>
        <mxCell id="sZjGSIEbr4CvCZts8M8v-72" value="exploits" style="edgeStyle=none;rounded=0;orthogonalLoop=1;jettySize=auto;html=1;entryX=0.979;entryY=0.62;entryDx=0;entryDy=0;entryPerimeter=0;dashed=1;" edge="1" parent="1" source="sZjGSIEbr4CvCZts8M8v-46" target="sZjGSIEbr4CvCZts8M8v-71">
          <mxGeometry x="-0.3748" y="4" relative="1" as="geometry">
            <mxPoint as="offset" />
          </mxGeometry>
        </mxCell>
        <mxCell id="sZjGSIEbr4CvCZts8M8v-46" value="&lt;font color=&quot;#fbfff2&quot;&gt;Session hijacking&lt;br&gt;&lt;/font&gt;" style="ellipse;whiteSpace=wrap;html=1;fillColor=#000000;" vertex="1" parent="1">
          <mxGeometry x="820" y="490" width="120" height="80" as="geometry" />
        </mxCell>
        <mxCell id="sZjGSIEbr4CvCZts8M8v-61" value="exploits" style="edgeStyle=none;rounded=0;orthogonalLoop=1;jettySize=auto;html=1;entryX=1;entryY=0.5;entryDx=0;entryDy=0;dashed=1;" edge="1" parent="1" source="sZjGSIEbr4CvCZts8M8v-54" target="sZjGSIEbr4CvCZts8M8v-55">
          <mxGeometry relative="1" as="geometry" />
        </mxCell>
        <mxCell id="sZjGSIEbr4CvCZts8M8v-54" value="&lt;font color=&quot;#fbfff2&quot;&gt;Request Forgery&lt;br&gt;&lt;/font&gt;" style="ellipse;whiteSpace=wrap;html=1;fillColor=#000000;" vertex="1" parent="1">
          <mxGeometry x="820" y="640" width="120" height="80" as="geometry" />
        </mxCell>
        <mxCell id="sZjGSIEbr4CvCZts8M8v-55" value="No CSRF Form" style="ellipse;whiteSpace=wrap;html=1;dashed=1;" vertex="1" parent="1">
          <mxGeometry x="635" y="640" width="100" height="66.67" as="geometry" />
        </mxCell>
        <mxCell id="sZjGSIEbr4CvCZts8M8v-74" style="edgeStyle=none;rounded=0;orthogonalLoop=1;jettySize=auto;html=1;dashed=1;" edge="1" parent="1" source="sZjGSIEbr4CvCZts8M8v-64" target="sZjGSIEbr4CvCZts8M8v-65">
          <mxGeometry relative="1" as="geometry" />
        </mxCell>
        <mxCell id="sZjGSIEbr4CvCZts8M8v-75" value="extends" style="edgeLabel;html=1;align=center;verticalAlign=middle;resizable=0;points=[];" vertex="1" connectable="0" parent="sZjGSIEbr4CvCZts8M8v-74">
          <mxGeometry x="0.3359" y="1" relative="1" as="geometry">
            <mxPoint x="-12.44" y="-1.09" as="offset" />
          </mxGeometry>
        </mxCell>
        <mxCell id="sZjGSIEbr4CvCZts8M8v-108" style="edgeStyle=none;rounded=0;orthogonalLoop=1;jettySize=auto;html=1;dashed=1;endArrow=classic;endFill=1;" edge="1" parent="1" source="sZjGSIEbr4CvCZts8M8v-64" target="sZjGSIEbr4CvCZts8M8v-107">
          <mxGeometry relative="1" as="geometry" />
        </mxCell>
        <mxCell id="sZjGSIEbr4CvCZts8M8v-109" value="extends" style="edgeLabel;html=1;align=center;verticalAlign=middle;resizable=0;points=[];" vertex="1" connectable="0" parent="sZjGSIEbr4CvCZts8M8v-108">
          <mxGeometry x="0.3475" y="2" relative="1" as="geometry">
            <mxPoint as="offset" />
          </mxGeometry>
        </mxCell>
        <mxCell id="sZjGSIEbr4CvCZts8M8v-64" value="Upload Files" style="ellipse;whiteSpace=wrap;html=1;" vertex="1" parent="1">
          <mxGeometry x="455" y="690" width="100" height="66.67" as="geometry" />
        </mxCell>
        <mxCell id="sZjGSIEbr4CvCZts8M8v-65" value="Missing file validation" style="ellipse;whiteSpace=wrap;html=1;dashed=1;" vertex="1" parent="1">
          <mxGeometry x="635" y="730" width="100" height="66.67" as="geometry" />
        </mxCell>
        <mxCell id="sZjGSIEbr4CvCZts8M8v-76" value="exploits" style="edgeStyle=none;rounded=0;orthogonalLoop=1;jettySize=auto;html=1;entryX=1;entryY=1;entryDx=0;entryDy=0;dashed=1;" edge="1" parent="1" source="sZjGSIEbr4CvCZts8M8v-66" target="sZjGSIEbr4CvCZts8M8v-65">
          <mxGeometry relative="1" as="geometry" />
        </mxCell>
        <mxCell id="sZjGSIEbr4CvCZts8M8v-66" value="&lt;font color=&quot;#fbfff2&quot;&gt;Malicious File Upload&lt;br&gt;&lt;/font&gt;" style="ellipse;whiteSpace=wrap;html=1;fillColor=#000000;" vertex="1" parent="1">
          <mxGeometry x="820" y="796.67" width="120" height="80" as="geometry" />
        </mxCell>
        <mxCell id="sZjGSIEbr4CvCZts8M8v-71" value="Missing Cookie Attributes:&lt;br&gt;SameSite, Secure, HttpOnly" style="ellipse;whiteSpace=wrap;html=1;dashed=1;" vertex="1" parent="1">
          <mxGeometry x="555" y="470" width="140" height="66.67" as="geometry" />
        </mxCell>
        <mxCell id="sZjGSIEbr4CvCZts8M8v-84" value="E-mail &lt;br&gt;Verification" style="ellipse;whiteSpace=wrap;html=1;dashed=1;" vertex="1" parent="1">
          <mxGeometry x="655" y="20" width="100" height="66.67" as="geometry" />
        </mxCell>
        <mxCell id="sZjGSIEbr4CvCZts8M8v-86" value="&lt;font color=&quot;#fbfff2&quot;&gt;Identity Theft&lt;br&gt;&lt;/font&gt;" style="ellipse;whiteSpace=wrap;html=1;fillColor=#000000;" vertex="1" parent="1">
          <mxGeometry x="1025" y="240.00000000000003" width="120" height="80" as="geometry" />
        </mxCell>
        <mxCell id="sZjGSIEbr4CvCZts8M8v-91" style="rounded=0;orthogonalLoop=1;jettySize=auto;html=1;entryX=0;entryY=0;entryDx=0;entryDy=0;dashed=1;exitX=1;exitY=1;exitDx=0;exitDy=0;" edge="1" parent="1" source="sZjGSIEbr4CvCZts8M8v-84" target="sZjGSIEbr4CvCZts8M8v-86">
          <mxGeometry relative="1" as="geometry">
            <mxPoint x="920.0000000000005" y="153.34500000000003" as="sourcePoint" />
            <mxPoint x="990" y="166.66999999999985" as="targetPoint" />
          </mxGeometry>
        </mxCell>
        <mxCell id="sZjGSIEbr4CvCZts8M8v-105" style="edgeStyle=none;rounded=0;orthogonalLoop=1;jettySize=auto;html=1;entryX=0;entryY=0.5;entryDx=0;entryDy=0;endArrow=classic;endFill=1;dashed=1;" edge="1" parent="1" source="sZjGSIEbr4CvCZts8M8v-100" target="sZjGSIEbr4CvCZts8M8v-103">
          <mxGeometry relative="1" as="geometry" />
        </mxCell>
        <mxCell id="sZjGSIEbr4CvCZts8M8v-106" value="prevents" style="edgeLabel;html=1;align=center;verticalAlign=middle;resizable=0;points=[];" vertex="1" connectable="0" parent="sZjGSIEbr4CvCZts8M8v-105">
          <mxGeometry x="-0.7728" y="-3" relative="1" as="geometry">
            <mxPoint x="12.02" y="-5.69" as="offset" />
          </mxGeometry>
        </mxCell>
        <mxCell id="sZjGSIEbr4CvCZts8M8v-100" value="Access Control" style="ellipse;whiteSpace=wrap;html=1;dashed=1;" vertex="1" parent="1">
          <mxGeometry x="635" y="553.3299999999999" width="100" height="66.67" as="geometry" />
        </mxCell>
        <mxCell id="sZjGSIEbr4CvCZts8M8v-110" style="edgeStyle=orthogonalEdgeStyle;rounded=0;orthogonalLoop=1;jettySize=auto;html=1;dashed=1;endArrow=classic;endFill=1;" edge="1" parent="1" source="sZjGSIEbr4CvCZts8M8v-103" target="sZjGSIEbr4CvCZts8M8v-107">
          <mxGeometry relative="1" as="geometry">
            <Array as="points">
              <mxPoint x="1100" y="930" />
              <mxPoint x="695" y="930" />
            </Array>
          </mxGeometry>
        </mxCell>
        <mxCell id="sZjGSIEbr4CvCZts8M8v-111" value="exploits" style="edgeLabel;html=1;align=center;verticalAlign=middle;resizable=0;points=[];" vertex="1" connectable="0" parent="sZjGSIEbr4CvCZts8M8v-110">
          <mxGeometry x="0.3072" relative="1" as="geometry">
            <mxPoint x="-165.67" as="offset" />
          </mxGeometry>
        </mxCell>
        <mxCell id="sZjGSIEbr4CvCZts8M8v-103" value="&lt;font color=&quot;#fbfff2&quot;&gt;Access personal&lt;br&gt;data&lt;br&gt;&lt;/font&gt;" style="ellipse;whiteSpace=wrap;html=1;fillColor=#000000;" vertex="1" parent="1">
          <mxGeometry x="1040" y="553.3299999999999" width="120" height="80" as="geometry" />
        </mxCell>
        <mxCell id="sZjGSIEbr4CvCZts8M8v-107" value="Missing Access Control" style="ellipse;whiteSpace=wrap;html=1;dashed=1;" vertex="1" parent="1">
          <mxGeometry x="635" y="830" width="100" height="66.67" as="geometry" />
        </mxCell>
      </root>
    </mxGraphModel>
  </diagram>
</mxfile>
